<svg xmlns="http://www.w3.org/2000/svg" version="1.1" viewBox="1.6737794876098633 0.5831755995750427 673.3656005859375 258.2094421386719" width="100" height="100">
<g stroke-width="2.00" fill="none" stroke-linecap="butt">
<path stroke="#b476a5" d="&#10;  M 322.83 116.95&#10;  L 315.97 115.76&#10;  A 0.88 0.84 40.7 0 0 315.56 115.78&#10;  L 312.94 116.54"/>
<path stroke="#b476a5" d="&#10;  M 316.42 124.42&#10;  Q 317.60 124.05 318.83 123.55&#10;  Q 320.03 123.05 321.27 122.90&#10;  Q 323.51 122.63 325.92 122.12"/>
<path stroke="#b476a5" d="&#10;  M 253.08 92.79&#10;  Q 252.21 92.19 252.52 93.20&#10;  Q 252.84 94.25 253.94 94.37&#10;  Q 254.72 94.46 254.22 93.85&#10;  Q 253.70 93.21 253.08 92.79"/>
<path stroke="#b476a5" d="&#10;  M 256.63 96.12&#10;  Q 256.68 95.78 256.50 95.48&#10;  Q 255.97 94.61 256.24 95.60&#10;  Q 256.71 97.27 257.00 98.92&#10;  Q 257.13 99.68 257.99 99.67&#10;  Q 258.95 99.65 258.35 98.90&#10;  L 256.88 97.06&#10;  Q 256.55 96.64 256.63 96.12"/>
<path stroke="#b476a5" d="&#10;  M 249.19 100.59&#10;  Q 249.31 100.64 249.39 100.73&#10;  Q 249.72 101.10 249.60 100.62&#10;  Q 249.43 99.89 248.69 99.64&#10;  Q 248.23 99.48 248.46 99.91&#10;  Q 248.72 100.39 249.19 100.59"/>
</g>
<path fill="#f06b84" d="&#10;  M 80.71 129.61&#10;  C 79.62 129.27 78.51 129.00 77.49 128.46&#10;  Q 70.93 125.00 63.87 120.75&#10;  Q 58.32 117.40 52.74 115.17&#10;  C 42.12 110.91 31.96 106.86 21.74 102.03&#10;  C 18.09 100.31 14.20 97.31 12.01 93.82&#10;  Q 8.73 88.56 5.37 83.44&#10;  C 3.85 81.13 3.71 78.78 4.71 76.17&#10;  C 5.54 74.00 6.85 72.70 7.35 70.25&#10;  Q 8.91 62.59 13.14 55.71&#10;  Q 13.43 55.23 13.29 54.68&#10;  Q 12.05 50.06 9.77 45.15&#10;  C 8.39 42.17 5.52 41.51 3.90 38.80&#10;  Q 1.32 34.47 1.73 29.09&#10;  C 1.93 26.37 4.41 23.82 6.48 22.45&#10;  Q 11.35 19.23 16.40 16.59&#10;  Q 26.93 11.10 37.66 6.01&#10;  C 40.68 4.58 43.08 2.81 45.77 0.92&#10;  A 1.87 1.85 36.9 0 1 47.46 0.69&#10;  C 50.33 1.68 53.04 2.19 56.25 2.19&#10;  Q 70.96 2.17 85.75 1.99&#10;  Q 87.67 1.97 89.50 1.95&#10;  Q 111.51 1.70 130.75 1.96&#10;  Q 132.50 1.99 134.25 2.00&#10;  Q 142.77 2.09 152.16 2.81&#10;  Q 154.07 2.95 156.00 4.19&#10;  Q 156.50 4.50 156.70 5.05&#10;  C 158.13 8.93 159.24 10.66 163.32 12.00&#10;  Q 172.31 14.95 181.26 17.66&#10;  C 188.81 19.94 196.52 21.37 204.38 21.36&#10;  Q 208.51 21.36 212.46 21.36&#10;  Q 216.09 21.37 220.48 20.57&#10;  Q 227.13 19.35 233.74 17.96&#10;  C 236.43 17.40 238.97 16.36 241.72 15.89&#10;  Q 251.25 14.27 263.81 14.56&#10;  Q 272.86 14.78 280.59 18.88&#10;  Q 283.78 20.57 285.51 23.25&#10;  Q 287.74 26.71 289.13 30.25&#10;  C 290.11 32.79 293.11 31.86 295.12 31.58&#10;  Q 296.71 31.36 298.43 31.34&#10;  Q 320.46 31.02 339.37 30.01&#10;  Q 340.07 29.97 340.76 29.95&#10;  Q 361.00 29.13 385.31 30.05&#10;  Q 388.18 30.16 390.71 29.70&#10;  Q 393.81 29.14 396.77 28.23&#10;  C 399.59 27.36 402.61 28.71 405.01 30.02&#10;  A 1.22 1.22 0.0 0 1 405.31 31.94&#10;  Q 403.69 33.63 401.72 35.20&#10;  A 0.49 0.49 0.0 0 0 401.82 36.03&#10;  C 405.43 37.65 408.53 39.84 412.26 41.34&#10;  C 422.94 45.63 433.04 50.25 444.42 53.67&#10;  Q 446.71 54.35 451.34 57.19&#10;  C 452.81 58.09 453.12 59.18 454.03 60.46&#10;  Q 454.29 60.81 454.70 60.94&#10;  C 459.40 62.35 464.25 62.68 468.87 64.35&#10;  Q 473.66 66.07 478.22 66.92&#10;  Q 482.84 67.79 486.98 69.22&#10;  Q 497.92 72.99 503.25 74.23&#10;  Q 530.62 80.59 540.00 82.50&#10;  Q 546.70 83.86 550.11 84.75&#10;  Q 551.80 85.20 553.38 85.28&#10;  C 554.91 85.35 556.19 85.91 557.67 86.05&#10;  Q 564.90 86.74 572.13 88.73&#10;  Q 582.10 91.47 590.37 94.60&#10;  Q 599.30 97.98 609.04 105.90&#10;  C 611.25 107.70 611.92 110.32 614.88 111.26&#10;  Q 616.27 111.70 617.88 111.69&#10;  Q 624.45 111.64 630.15 112.80&#10;  Q 635.33 113.86 641.32 114.86&#10;  Q 645.64 115.58 650.79 117.18&#10;  C 658.70 119.64 671.86 123.96 673.91 133.32&#10;  Q 674.42 135.63 674.89 138.07&#10;  Q 675.24 139.88 674.77 141.60&#10;  Q 674.41 142.94 674.49 144.31&#10;  C 674.65 146.98 673.01 150.39 672.30 153.06&#10;  C 671.05 157.71 667.54 161.17 663.34 163.40&#10;  Q 649.78 170.55 639.38 174.87&#10;  C 636.93 175.88 634.10 176.73 631.44 177.00&#10;  Q 623.81 177.79 615.88 178.76&#10;  C 609.13 179.59 602.65 179.34 595.93 179.87&#10;  Q 593.19 180.09 590.66 179.50&#10;  C 588.29 178.94 585.90 178.80 583.65 177.76&#10;  Q 568.31 170.67 551.38 170.88&#10;  Q 546.44 170.94 543.00 171.94&#10;  C 537.76 173.47 533.07 176.62 530.44 181.84&#10;  Q 526.32 190.02 519.31 201.57&#10;  Q 513.26 211.55 503.93 219.40&#10;  Q 500.68 222.14 497.28 223.11&#10;  C 490.04 225.18 481.95 226.10 475.30 222.39&#10;  Q 467.27 217.91 459.07 213.72&#10;  Q 450.21 209.21 440.74 209.59&#10;  C 437.19 209.73 433.43 209.81 429.82 210.55&#10;  Q 426.18 211.30 423.19 210.44&#10;  Q 420.88 209.79 418.68 209.49&#10;  Q 411.30 208.49 402.73 203.81&#10;  C 402.06 203.44 401.16 203.21 400.41 203.45&#10;  Q 396.19 204.82 393.66 206.88&#10;  Q 390.64 209.34 387.52 210.21&#10;  C 381.47 211.89 375.83 208.28 369.74 208.68&#10;  Q 363.30 209.11 355.42 211.22&#10;  Q 351.13 212.37 346.69 214.98&#10;  Q 340.64 218.53 333.54 221.23&#10;  C 327.77 223.42 322.54 226.48 316.94 229.04&#10;  Q 313.60 230.57 309.89 231.36&#10;  Q 302.28 232.99 295.27 234.86&#10;  C 286.32 237.25 279.02 241.97 271.50 247.43&#10;  Q 265.51 251.78 253.85 255.96&#10;  C 245.98 258.79 234.96 260.22 226.82 256.77&#10;  C 222.62 255.00 218.72 252.58 214.77 250.34&#10;  C 212.12 248.84 209.85 246.82 207.51 244.91&#10;  Q 199.78 238.57 191.02 236.11&#10;  Q 177.66 232.36 164.34 230.36&#10;  Q 161.74 229.97 159.18 229.83&#10;  Q 153.41 229.52 149.19 225.91&#10;  Q 141.56 219.36 136.27 211.50&#10;  Q 133.44 207.28 130.27 203.19&#10;  Q 127.07 199.07 124.11 193.97&#10;  Q 122.69 191.53 120.37 192.84&#10;  Q 117.06 194.72 115.12 197.32&#10;  C 111.65 201.99 105.42 207.50 99.64 208.75&#10;  Q 99.18 208.85 98.74 208.68&#10;  Q 89.24 205.02 82.29 199.04&#10;  C 77.39 194.81 72.59 191.44 67.56 187.66&#10;  Q 63.97 184.96 62.21 182.61&#10;  C 59.87 179.47 56.47 174.92 56.99 170.79&#10;  C 57.33 168.04 57.72 165.65 59.32 163.32&#10;  Q 61.19 160.60 62.32 157.57&#10;  C 63.17 155.29 65.11 154.00 65.85 151.84&#10;  C 66.78 149.11 69.47 147.52 71.19 145.28&#10;  Q 73.07 142.85 73.51 139.60&#10;  C 73.95 136.35 78.61 132.52 80.88 130.35&#10;  Q 81.42 129.83 80.71 129.61&#10;  Z&#10;  M 127.99 42.30&#10;  Q 131.17 41.38 133.55 40.00&#10;  C 136.00 38.58 138.59 37.56 141.34 36.82&#10;  A 1.55 1.53 87.1 0 0 142.45 35.58&#10;  Q 143.31 30.30 144.73 25.84&#10;  Q 146.29 20.95 147.79 16.36&#10;  C 149.21 12.04 140.45 11.70 138.19 11.38&#10;  Q 135.77 11.02 133.37 10.98&#10;  Q 116.45 10.64 100.81 10.40&#10;  C 92.07 10.27 82.54 10.94 73.08 11.07&#10;  C 68.25 11.13 63.49 10.55 58.72 10.97&#10;  A 0.65 0.65 0.0 0 0 58.26 12.01&#10;  Q 60.82 15.42 63.51 18.75&#10;  C 67.91 24.18 73.30 28.75 77.70 33.86&#10;  C 78.68 35.00 80.25 36.06 81.81 35.95&#10;  C 84.43 35.77 86.85 36.27 89.48 35.87&#10;  Q 92.23 35.46 95.03 36.16&#10;  Q 102.91 38.14 110.10 39.41&#10;  C 111.65 39.68 113.03 40.44 114.60 40.64&#10;  Q 118.79 41.17 123.90 42.38&#10;  Q 126.01 42.88 127.99 42.30&#10;  Z&#10;  M 21.07 46.30&#10;  C 22.48 54.32 23.35 62.29 18.77 69.05&#10;  C 17.63 70.74 17.66 72.63 16.62 74.43&#10;  Q 16.30 74.99 16.93 75.16&#10;  Q 18.63 75.60 20.02 74.45&#10;  C 21.66 73.09 23.08 71.66 25.06 70.79&#10;  C 31.67 67.89 37.12 63.89 43.63 60.57&#10;  Q 61.45 51.47 76.34 42.59&#10;  A 0.60 0.60 0.0 0 0 76.33 41.55&#10;  C 72.05 39.17 68.09 35.92 64.93 32.02&#10;  Q 61.26 27.49 56.65 23.37&#10;  C 52.85 19.97 50.49 15.94 46.93 12.40&#10;  Q 46.11 11.59 45.10 12.14&#10;  L 14.23 28.85&#10;  Q 11.99 30.06 13.43 32.17&#10;  Q 17.13 37.56 19.93 42.93&#10;  Q 20.75 44.52 21.07 46.30&#10;  Z&#10;  M 195.87 41.93&#10;  C 197.02 39.24 196.34 35.56 195.63 32.43&#10;  Q 195.53 32.00 195.12 31.86&#10;  C 191.55 30.64 188.13 29.48 184.37 28.45&#10;  Q 180.12 27.29 175.79 25.82&#10;  Q 172.43 24.68 160.99 21.42&#10;  C 159.81 21.08 158.85 20.41 157.72 20.01&#10;  A 1.78 1.78 0.0 0 0 155.40 21.23&#10;  Q 153.77 27.25 151.56 32.80&#10;  C 150.18 36.24 150.76 39.64 149.21 43.02&#10;  A 1.38 1.38 0.0 0 0 150.05 44.91&#10;  Q 153.93 46.11 158.16 46.80&#10;  Q 162.15 47.46 166.28 48.42&#10;  Q 173.07 50.00 179.23 51.24&#10;  C 181.68 51.74 188.51 54.39 190.35 51.87&#10;  A 2.20 2.20 0.0 0 1 193.68 51.60&#10;  Q 195.13 53.04 197.03 52.83&#10;  Q 197.68 52.75 197.62 52.10&#10;  Q 197.43 50.01 197.55 47.73&#10;  C 197.64 46.11 196.82 44.81 196.00 43.50&#10;  A 1.69 1.68 -49.8 0 1 195.87 41.93&#10;  Z&#10;  M 235.03 27.57&#10;  C 225.40 30.47 216.00 31.95 205.94 31.51&#10;  Q 204.30 31.44 204.49 33.07&#10;  Q 204.54 33.47 204.45 33.87&#10;  A 1.29 1.29 0.0 0 1 203.90 34.65&#10;  L 201.19 36.42&#10;  Q 200.73 36.72 200.55 37.25&#10;  C 199.69 39.88 201.07 41.79 201.05 44.39&#10;  Q 201.02 48.16 201.05 52.10&#10;  A 2.49 2.49 0.0 0 0 203.26 54.56&#10;  Q 210.49 55.36 217.50 55.78&#10;  C 218.63 55.84 219.49 56.45 220.50 56.48&#10;  Q 230.02 56.73 239.49 57.16&#10;  Q 245.96 57.46 262.36 56.85&#10;  Q 272.72 56.47 280.83 54.93&#10;  Q 283.51 54.43 286.15 53.33&#10;  A 1.06 1.06 0.0 0 0 286.65 51.79&#10;  Q 285.47 49.87 284.92 47.86&#10;  Q 283.53 42.81 281.84 38.58&#10;  C 280.74 35.81 280.36 32.88 279.52 30.00&#10;  Q 279.38 29.50 279.49 29.00&#10;  Q 279.61 28.46 279.43 27.96&#10;  Q 279.20 27.33 278.50 27.26&#10;  Q 274.96 26.90 271.62 26.80&#10;  C 269.57 26.74 267.75 26.00 265.79 25.52&#10;  Q 263.59 24.97 261.10 24.98&#10;  Q 254.34 24.99 248.55 24.78&#10;  Q 245.59 24.67 240.82 26.45&#10;  C 239.10 27.10 236.89 27.01 235.03 27.57&#10;  Z&#10;  M 390.82 81.19&#10;  Q 399.08 82.66 407.40 83.89&#10;  C 414.83 85.00 416.68 73.89 418.21 68.92&#10;  Q 418.58 67.71 418.70 66.54&#10;  C 418.92 64.28 419.73 62.35 418.78 60.13&#10;  C 417.67 57.54 416.72 54.80 414.19 53.18&#10;  C 407.74 49.06 401.13 45.06 394.99 40.53&#10;  Q 393.09 39.13 390.05 38.92&#10;  C 385.34 38.60 380.77 37.97 376.01 37.99&#10;  Q 359.62 38.09 339.95 38.04&#10;  C 327.20 38.00 314.35 38.81 301.50 38.56&#10;  Q 299.36 38.51 297.32 39.07&#10;  A 2.84 2.82 75.0 0 0 295.34 42.52&#10;  Q 296.27 46.07 296.29 49.52&#10;  Q 296.30 50.20 296.94 50.42&#10;  Q 304.38 53.02 312.29 55.86&#10;  C 315.02 56.85 317.54 58.17 320.28 59.14&#10;  Q 331.77 63.24 343.19 67.62&#10;  C 348.35 69.60 353.58 70.98 358.73 72.84&#10;  Q 363.87 74.69 369.90 75.93&#10;  Q 376.61 77.32 382.85 79.80&#10;  C 385.48 80.84 388.18 80.72 390.82 81.19&#10;  Z&#10;  M 50.71 100.06&#10;  Q 50.35 99.33 50.99 98.82&#10;  C 55.22 95.48 59.87 93.23 64.24 90.09&#10;  Q 72.77 83.97 81.77 78.06&#10;  C 88.33 73.75 93.61 69.03 99.31 64.06&#10;  C 105.50 58.67 112.34 53.92 119.24 49.22&#10;  Q 120.21 48.57 119.06 48.40&#10;  Q 105.29 46.33 91.03 47.22&#10;  Q 86.25 47.51 82.62 48.51&#10;  C 76.03 50.33 70.49 53.17 64.69 57.18&#10;  C 62.69 58.57 60.37 59.08 58.33 60.30&#10;  Q 52.46 63.80 46.39 67.78&#10;  C 43.55 69.63 40.33 70.36 37.53 72.35&#10;  Q 32.42 75.98 26.55 79.41&#10;  Q 23.31 81.30 19.52 81.06&#10;  Q 15.67 80.81 12.27 80.74&#10;  Q 11.47 80.72 11.94 81.36&#10;  C 14.11 84.27 17.31 85.68 20.16 87.75&#10;  C 26.03 92.01 32.05 95.31 38.75 98.10&#10;  Q 40.88 98.98 42.69 100.05&#10;  C 45.38 101.63 47.84 103.41 51.15 102.65&#10;  A 0.62 0.61 -19.8 0 0 51.56 101.78&#10;  L 50.71 100.06&#10;  Z&#10;  M 136.08 64.98&#10;  Q 137.38 58.19 138.47 51.94&#10;  Q 138.70 50.64 138.45 49.16&#10;  A 1.23 1.23 0.0 0 0 136.94 48.16&#10;  Q 130.95 49.62 126.28 52.91&#10;  C 121.83 56.05 117.70 59.69 113.15 62.80&#10;  Q 107.18 66.90 101.36 73.21&#10;  A 0.21 0.21 0.0 0 0 101.45 73.56&#10;  C 105.64 74.79 109.69 75.61 114.14 75.53&#10;  Q 124.15 75.34 133.49 75.84&#10;  A 1.42 1.42 0.0 0 0 134.96 74.61&#10;  C 135.38 71.38 135.47 68.19 136.08 64.98&#10;  Z&#10;  M 147.29 52.49&#10;  L 142.99 75.94&#10;  Q 142.86 76.67 143.59 76.75&#10;  Q 149.38 77.37 155.48 77.48&#10;  C 157.18 77.51 158.78 78.09 160.49 78.11&#10;  Q 177.22 78.33 192.92 78.20&#10;  A 1.00 1.00 0.0 0 0 193.89 77.02&#10;  C 193.22 73.52 193.76 69.97 193.16 66.43&#10;  Q 192.78 64.24 192.15 62.23&#10;  A 2.13 2.13 0.0 0 0 190.78 60.85&#10;  C 187.61 59.80 184.50 59.19 181.19 59.04&#10;  Q 177.81 58.88 174.09 57.74&#10;  Q 168.16 55.91 161.44 55.04&#10;  Q 158.31 54.63 154.99 53.69&#10;  Q 151.87 52.80 148.55 51.74&#10;  A 0.97 0.97 0.0 0 0 147.29 52.49&#10;  Z&#10;  M 449.39 67.40&#10;  Q 449.82 67.41 450.20 67.22&#10;  A 0.30 0.29 -42.3 0 0 450.23 66.71&#10;  Q 447.28 64.74 444.40 63.55&#10;  Q 430.68 57.85 419.26 53.88&#10;  Q 416.13 52.78 418.07 55.48&#10;  Q 420.39 58.68 421.74 61.77&#10;  Q 422.54 63.61 424.34 64.63&#10;  Q 428.79 67.15 432.53 67.15&#10;  Q 440.69 67.16 449.39 67.40&#10;  Z&#10;  M 202.39 61.53&#10;  Q 201.09 61.45 201.22 62.74&#10;  C 201.50 65.44 200.40 67.84 200.81 70.38&#10;  Q 201.36 73.76 201.28 77.30&#10;  Q 201.26 78.18 202.14 78.19&#10;  Q 239.54 78.51 278.82 78.75&#10;  C 284.34 78.79 289.08 79.25 294.15 81.86&#10;  Q 297.91 83.81 295.91 80.09&#10;  C 294.58 77.61 294.61 74.53 293.39 71.71&#10;  Q 290.70 65.51 288.14 58.38&#10;  Q 287.78 57.40 288.00 56.04&#10;  Q 288.18 54.85 287.02 55.17&#10;  L 286.64 55.28&#10;  A 1.90 1.90 0.0 0 0 285.25 57.11&#10;  C 285.26 61.26 279.90 63.09 276.50 63.19&#10;  Q 248.10 64.04 218.55 62.93&#10;  C 213.66 62.75 207.85 61.85 202.39 61.53&#10;  Z&#10;  M 322.83 116.95&#10;  L 315.97 115.76&#10;  A 0.88 0.84 40.7 0 0 315.56 115.78&#10;  L 312.94 116.54&#10;  C 309.62 110.34 305.62 104.31 302.96 97.94&#10;  Q 301.30 93.97 299.55 90.07&#10;  A 4.68 4.68 0.0 0 0 295.40 87.32&#10;  C 291.18 87.22 287.02 86.73 282.81 86.75&#10;  Q 272.07 86.81 261.02 86.60&#10;  C 241.94 86.24 222.95 86.84 203.64 86.44&#10;  A 0.59 0.59 0.0 0 0 203.12 87.33&#10;  C 204.47 89.59 205.02 92.27 206.65 94.29&#10;  C 208.22 96.24 210.07 98.04 210.61 100.58&#10;  C 211.14 103.08 211.33 105.53 212.43 107.90&#10;  Q 216.21 115.99 219.94 124.44&#10;  C 221.16 127.22 223.04 129.52 223.76 132.51&#10;  A 1.75 1.74 -7.7 0 0 225.52 133.85&#10;  Q 233.83 133.55 240.73 133.01&#10;  Q 254.96 131.91 270.48 130.69&#10;  Q 274.30 130.39 278.02 130.18&#10;  Q 282.09 129.96 285.92 129.27&#10;  Q 289.61 128.62 293.02 128.36&#10;  Q 296.61 128.08 300.00 127.27&#10;  Q 302.60 126.64 305.02 126.48&#10;  C 307.79 126.29 310.39 125.97 313.25 125.91&#10;  Q 315.75 125.86 316.42 124.42&#10;  Q 317.60 124.05 318.83 123.55&#10;  Q 320.03 123.05 321.27 122.90&#10;  Q 323.51 122.63 325.92 122.12&#10;  Q 331.41 122.20 334.01 121.62&#10;  Q 339.59 120.35 345.37 119.39&#10;  Q 346.69 119.18 347.95 118.77&#10;  C 350.09 118.08 352.59 118.28 354.83 117.77&#10;  Q 379.62 112.10 404.30 106.76&#10;  C 410.23 105.48 415.91 103.33 421.86 102.01&#10;  Q 425.89 101.13 430.44 99.58&#10;  Q 434.68 98.15 430.20 97.99&#10;  Q 425.79 97.85 422.28 97.00&#10;  Q 418.34 96.04 415.02 95.77&#10;  Q 408.02 95.20 400.75 93.78&#10;  Q 397.41 93.13 400.78 92.68&#10;  Q 403.95 92.25 407.30 92.15&#10;  A 0.46 0.45 -11.7 0 0 407.71 91.53&#10;  Q 407.55 91.12 407.11 91.00&#10;  C 404.36 90.24 401.50 89.86 398.95 88.61&#10;  Q 393.92 86.16 387.10 86.72&#10;  C 384.89 86.91 385.20 88.09 383.91 89.17&#10;  A 1.22 1.19 -61.7 0 1 383.05 89.44&#10;  C 380.17 89.21 377.63 88.10 374.82 87.60&#10;  C 372.74 87.23 370.80 86.94 368.81 86.08&#10;  C 364.66 84.31 361.02 82.41 356.45 81.25&#10;  Q 345.20 78.39 339.86 76.31&#10;  Q 323.13 69.77 305.93 62.96&#10;  Q 303.95 62.17 302.32 61.22&#10;  C 300.81 60.33 298.29 58.16 296.48 58.70&#10;  A 0.35 0.35 0.0 0 0 296.37 59.31&#10;  C 297.86 60.42 298.91 61.91 299.32 63.79&#10;  Q 301.16 72.42 305.20 81.96&#10;  A 1.36 1.35 -9.9 0 0 306.39 82.79&#10;  Q 320.51 83.42 333.63 83.21&#10;  Q 335.68 83.18 335.61 85.23&#10;  L 335.48 88.55&#10;  Q 335.44 89.54 334.45 89.49&#10;  L 309.43 88.45&#10;  A 1.01 1.01 0.0 0 0 308.45 89.82&#10;  Q 313.78 103.73 322.83 116.95&#10;  Z&#10;  M 535.18 94.14&#10;  Q 535.20 94.59 534.74 94.60&#10;  Q 527.65 94.62 522.37 91.60&#10;  C 517.49 88.82 512.80 90.36 507.69 90.81&#10;  Q 501.98 91.31 496.28 91.77&#10;  Q 493.00 92.04 489.64 93.07&#10;  Q 486.33 94.10 483.17 94.89&#10;  Q 480.15 95.64 476.28 97.84&#10;  C 473.55 99.39 470.55 100.33 467.69 101.63&#10;  A 2.16 2.15 50.8 0 0 467.32 105.33&#10;  C 468.53 106.21 469.99 106.79 471.50 106.85&#10;  C 476.60 107.03 481.02 107.73 485.94 109.96&#10;  C 492.72 113.03 498.32 110.45 504.48 106.51&#10;  C 509.55 103.27 515.87 99.15 521.96 100.73&#10;  A 0.57 0.56 -59.9 0 1 522.21 101.68&#10;  C 518.59 105.27 512.66 104.83 509.26 108.39&#10;  C 507.45 110.29 505.38 111.18 502.86 111.62&#10;  C 500.20 112.08 498.11 113.33 495.94 114.77&#10;  A 0.36 0.36 0.0 0 0 496.01 115.40&#10;  Q 513.44 122.07 530.07 126.90&#10;  C 538.03 129.21 545.64 132.16 553.62 134.90&#10;  C 555.96 135.70 557.93 137.21 560.28 137.98&#10;  C 570.52 141.35 580.74 138.52 589.88 133.01&#10;  Q 599.68 127.09 608.76 119.68&#10;  A 0.77 0.77 0.0 0 0 608.84 118.56&#10;  Q 605.56 114.99 601.79 111.74&#10;  Q 598.95 109.29 593.94 106.98&#10;  Q 585.83 103.24 579.68 100.87&#10;  Q 573.96 98.67 559.97 96.03&#10;  C 557.21 95.51 554.72 94.23 551.86 94.08&#10;  Q 549.05 93.93 546.16 93.24&#10;  Q 541.88 92.22 537.12 91.64&#10;  Q 529.81 90.75 521.98 88.04&#10;  C 518.46 86.83 514.90 86.31 511.42 85.12&#10;  Q 508.05 83.96 503.72 82.89&#10;  Q 494.25 80.55 484.93 78.31&#10;  Q 475.84 76.13 466.15 72.86&#10;  C 462.89 71.76 459.43 71.50 456.27 70.07&#10;  A 1.92 1.89 31.5 0 0 454.00 70.60&#10;  Q 451.21 74.03 448.30 74.55&#10;  C 443.53 75.40 437.15 75.12 432.11 74.89&#10;  C 429.92 74.79 428.01 74.06 425.99 73.36&#10;  A 1.72 1.71 -70.4 0 0 423.83 74.39&#10;  Q 421.31 81.35 417.54 87.67&#10;  Q 415.97 90.32 418.95 91.06&#10;  Q 431.30 94.11 440.10 97.18&#10;  C 442.71 98.10 445.15 96.61 447.70 96.68&#10;  Q 453.25 96.83 457.75 96.27&#10;  Q 460.00 95.99 462.00 95.95&#10;  Q 464.11 95.91 465.91 95.38&#10;  C 467.70 94.84 469.57 94.52 471.13 93.44&#10;  C 472.95 92.18 474.85 91.10 476.95 90.45&#10;  C 480.80 89.24 484.32 87.40 488.27 86.62&#10;  Q 495.39 85.23 502.33 84.73&#10;  Q 505.98 84.47 508.76 85.59&#10;  Q 512.42 87.06 516.81 88.05&#10;  C 519.57 88.67 521.78 90.25 524.49 90.68&#10;  C 528.12 91.26 531.24 92.80 534.87 93.47&#10;  Q 535.16 93.53 535.17 93.82&#10;  L 535.18 94.14&#10;  Z&#10;  M 95.24 118.74&#10;  Q 112.39 121.57 127.95 124.49&#10;  C 130.08 124.89 131.85 125.85 133.98 126.06&#10;  A 1.30 1.30 0.0 0 0 135.40 124.74&#10;  L 134.47 83.68&#10;  A 0.71 0.71 0.0 0 0 133.76 82.99&#10;  Q 125.47 83.02 117.26 83.02&#10;  C 112.58 83.03 108.20 82.31 103.69 81.39&#10;  Q 102.58 81.17 102.24 80.10&#10;  C 101.69 78.40 100.83 77.16 100.72 75.32&#10;  Q 100.63 73.93 99.46 74.69&#10;  C 93.48 78.63 87.96 82.98 81.76 86.96&#10;  C 77.24 89.85 73.03 93.33 68.26 95.98&#10;  Q 62.92 98.96 57.66 102.35&#10;  A 4.10 4.09 20.3 0 1 56.68 102.80&#10;  Q 56.06 102.98 55.56 103.31&#10;  Q 54.82 103.78 55.66 104.02&#10;  Q 64.73 106.66 71.97 112.78&#10;  C 75.24 115.53 78.49 117.17 81.85 119.39&#10;  A 1.56 1.55 45.8 0 0 83.50 119.42&#10;  C 86.68 117.52 91.69 118.15 95.24 118.74&#10;  Z&#10;  M 170.39 131.32&#10;  Q 175.55 132.23 181.36 132.46&#10;  C 182.87 132.53 184.21 133.53 185.91 133.66&#10;  Q 194.39 134.28 203.33 135.03&#10;  Q 208.84 135.49 214.93 135.10&#10;  A 1.22 1.21 72.6 0 0 215.89 133.26&#10;  Q 209.49 122.78 204.63 109.14&#10;  Q 200.50 97.57 197.46 86.98&#10;  Q 197.15 85.91 196.04 85.91&#10;  C 183.75 85.91 170.97 86.31 158.56 85.50&#10;  Q 152.67 85.11 146.32 84.81&#10;  Q 145.78 84.79 145.26 84.63&#10;  L 143.32 84.02&#10;  Q 142.41 83.73 142.43 84.68&#10;  L 143.15 125.75&#10;  A 1.63 1.57 -88.3 0 0 144.59 127.34&#10;  Q 150.21 127.82 156.21 129.16&#10;  Q 158.09 129.59 163.30 130.25&#10;  Q 166.88 130.71 170.39 131.32&#10;  Z&#10;  M 459.7421 103.4926&#10;  A 3.38 1.29 -5.9 0 0 456.2474 102.5568&#10;  A 3.38 1.29 -5.9 0 0 453.0179 104.1874&#10;  A 3.38 1.29 -5.9 0 0 456.5126 105.1232&#10;  A 3.38 1.29 -5.9 0 0 459.7421 103.4926&#10;  Z&#10;  M 347.98 127.50&#10;  Q 338.91 128.34 330.04 130.42&#10;  C 328.81 130.71 327.58 130.72 326.33 130.94&#10;  A 0.76 0.76 0.0 0 0 325.82 132.10&#10;  Q 329.01 137.14 331.74 142.29&#10;  C 333.28 145.21 335.41 147.45 336.90 150.31&#10;  C 339.25 154.79 342.34 158.43 344.79 162.84&#10;  A 1.78 1.77 -20.7 0 0 346.73 163.71&#10;  Q 358.89 161.01 370.82 158.25&#10;  Q 374.95 157.30 379.07 156.06&#10;  Q 382.75 154.95 387.35 154.25&#10;  Q 392.37 153.49 396.73 153.99&#10;  Q 404.45 154.86 413.37 154.53&#10;  Q 415.41 154.46 416.78 153.22&#10;  C 423.10 147.50 429.94 142.60 437.04 137.67&#10;  C 443.37 133.27 448.53 128.49 453.90 123.06&#10;  Q 457.38 119.55 459.73 115.20&#10;  Q 459.97 114.75 459.65 114.37&#10;  Q 457.36 111.66 453.68 111.10&#10;  Q 448.53 110.31 443.76 107.12&#10;  A 1.69 1.63 -27.7 0 0 442.80 106.84&#10;  Q 440.99 106.87 439.22 107.44&#10;  C 435.11 108.77 430.45 107.34 426.81 108.78&#10;  Q 422.29 110.56 417.66 111.58&#10;  Q 412.73 112.67 407.91 114.10&#10;  Q 400.32 116.34 393.70 117.72&#10;  Q 383.89 119.77 373.32 122.18&#10;  Q 363.84 124.35 353.35 126.19&#10;  C 351.45 126.52 349.91 127.32 347.98 127.50&#10;  Z&#10;  M 634.04 123.84&#10;  Q 628.44 122.04 619.76 122.49&#10;  C 618.51 122.55 617.20 122.52 616.37 123.65&#10;  C 615.44 124.94 614.44 126.09 613.19 127.07&#10;  Q 605.64 133.07 598.78 137.29&#10;  C 596.09 138.95 592.55 139.57 589.61 141.33&#10;  Q 584.72 144.25 580.07 145.55&#10;  C 575.15 146.92 566.38 147.71 560.91 145.33&#10;  Q 558.14 144.13 555.12 143.35&#10;  C 552.24 142.60 549.53 141.06 546.75 140.23&#10;  Q 526.50 134.16 506.16 127.47&#10;  C 502.17 126.15 498.50 124.26 494.64 123.07&#10;  C 487.58 120.90 480.86 117.91 474.03 115.50&#10;  A 1.39 1.39 0.0 0 0 472.21 116.55&#10;  Q 471.86 118.40 470.13 119.15&#10;  C 464.97 121.37 461.11 126.46 457.65 130.91&#10;  C 454.02 135.59 449.11 138.27 444.66 141.83&#10;  Q 436.05 148.71 426.77 155.35&#10;  C 425.71 156.11 424.25 157.44 423.86 158.68&#10;  Q 421.83 165.09 417.60 170.73&#10;  C 413.61 176.05 410.08 181.73 406.32 187.22&#10;  Q 405.31 188.68 404.80 190.43&#10;  Q 404.63 190.99 405.20 191.10&#10;  C 410.79 192.25 415.80 193.93 420.98 195.80&#10;  C 426.22 197.69 432.76 196.60 438.24 196.29&#10;  C 447.68 195.76 454.95 197.16 463.59 201.05&#10;  Q 470.50 204.16 474.90 207.15&#10;  C 478.64 209.69 482.39 212.34 487.00 211.67&#10;  Q 492.68 210.84 498.64 208.53&#10;  Q 500.32 207.87 501.62 206.61&#10;  C 507.63 200.74 511.50 193.39 515.27 186.06&#10;  C 518.13 180.51 521.74 175.40 524.94 170.08&#10;  Q 529.53 162.43 537.11 159.85&#10;  Q 542.42 158.03 546.54 157.82&#10;  Q 552.42 157.52 558.69 157.28&#10;  C 561.98 157.16 565.01 158.14 568.18 158.82&#10;  C 573.24 159.89 577.89 162.39 583.06 163.61&#10;  C 587.03 164.54 590.26 166.40 594.51 166.52&#10;  Q 601.07 166.72 607.50 166.11&#10;  Q 612.09 165.67 616.51 165.42&#10;  Q 621.28 165.16 625.47 164.21&#10;  Q 632.91 162.53 639.88 160.04&#10;  C 647.83 157.19 654.85 153.01 661.79 147.99&#10;  Q 663.27 146.92 663.48 145.27&#10;  C 664.00 141.09 663.87 135.16 659.92 132.38&#10;  C 657.07 130.38 653.52 128.58 650.09 127.74&#10;  Q 643.75 126.18 637.72 124.25&#10;  C 636.56 123.88 635.15 124.19 634.04 123.84&#10;  Z&#10;  M 75.78 149.00&#10;  A 0.27 0.27 0.0 0 0 75.68 149.47&#10;  Q 75.99 149.73 76.32 149.95&#10;  Q 76.74 150.21 77.23 150.18&#10;  C 81.89 149.88 84.83 151.45 89.00 152.60&#10;  Q 98.47 155.21 108.31 157.97&#10;  C 116.88 160.38 125.08 164.12 133.45 166.61&#10;  A 1.12 1.12 0.0 0 0 134.89 165.45&#10;  C 134.58 161.19 135.21 157.11 135.13 152.97&#10;  Q 134.98 144.90 135.16 136.15&#10;  Q 135.19 134.74 134.95 133.38&#10;  A 0.68 0.67 0.1 0 0 134.39 132.83&#10;  L 91.50 126.00&#10;  Q 90.04 125.77 89.40 127.11&#10;  Q 88.02 130.02 86.77 133.06&#10;  C 85.78 135.48 84.23 137.27 83.22 139.57&#10;  Q 82.19 141.91 80.54 144.03&#10;  C 79.35 145.57 77.58 148.49 75.78 149.00&#10;  Z&#10;  M 304.18 173.43&#10;  C 307.95 172.97 311.46 171.85 315.14 171.21&#10;  Q 321.24 170.15 327.15 168.32&#10;  C 330.38 167.32 333.65 166.95 336.94 166.37&#10;  A 0.68 0.67 -18.6 0 0 337.43 165.40&#10;  C 336.08 162.78 334.07 160.74 332.70 158.09&#10;  C 330.21 153.28 326.99 148.97 324.82 143.99&#10;  Q 323.40 140.70 321.36 137.77&#10;  C 320.70 136.82 320.53 135.59 320.04 134.56&#10;  A 1.80 1.79 -15.5 0 0 318.25 133.55&#10;  Q 311.74 134.14 305.25 135.30&#10;  C 300.35 136.18 295.46 136.09 290.66 136.93&#10;  Q 285.65 137.81 280.83 138.28&#10;  Q 275.71 138.79 270.99 139.22&#10;  Q 257.90 140.42 243.00 141.48&#10;  Q 236.87 141.91 230.15 141.60&#10;  A 0.61 0.61 0.0 0 0 229.60 142.53&#10;  C 231.17 145.11 231.45 148.13 232.52 150.95&#10;  Q 239.24 168.63 247.66 183.24&#10;  Q 248.07 183.96 248.89 183.85&#10;  Q 260.01 182.40 271.03 179.92&#10;  Q 272.27 179.64 273.99 179.42&#10;  Q 275.82 179.19 277.39 178.88&#10;  Q 287.27 176.97 298.69 174.74&#10;  C 300.55 174.38 302.32 173.65 304.18 173.43&#10;  Z&#10;  M 175.91 177.04&#10;  C 178.79 177.45 181.35 178.37 184.16 178.63&#10;  Q 194.33 179.58 204.06 181.98&#10;  Q 206.29 182.53 208.59 182.80&#10;  Q 211.06 183.10 213.46 183.58&#10;  C 219.80 184.85 226.47 184.89 232.94 185.26&#10;  C 234.68 185.36 236.27 185.03 237.98 185.00&#10;  Q 239.02 184.98 238.34 184.20&#10;  C 237.54 183.25 236.94 182.35 236.34 181.26&#10;  Q 233.35 175.76 231.41 170.44&#10;  C 228.15 161.50 224.00 153.07 219.85 144.59&#10;  Q 218.90 142.65 216.48 142.75&#10;  Q 203.93 143.24 191.16 142.22&#10;  Q 185.61 141.78 180.17 140.90&#10;  Q 174.91 140.06 169.10 139.49&#10;  C 163.02 138.90 157.37 137.08 151.40 136.22&#10;  Q 147.32 135.63 143.62 134.64&#10;  Q 142.65 134.38 142.65 135.38&#10;  L 142.63 167.47&#10;  Q 142.62 169.25 144.36 169.66&#10;  Q 150.58 171.14 157.73 173.22&#10;  Q 161.66 174.37 166.72 175.42&#10;  Q 171.34 176.38 175.91 177.04&#10;  Z&#10;  M 360.15 169.15&#10;  Q 349.82 171.48 340.18 174.06&#10;  C 336.43 175.07 332.46 174.96 328.74 176.02&#10;  Q 321.20 178.18 314.33 179.19&#10;  Q 309.32 179.92 304.83 181.32&#10;  Q 300.91 182.54 297.17 183.20&#10;  Q 279.47 186.30 260.92 189.56&#10;  C 258.69 189.95 256.54 189.40 254.41 190.26&#10;  Q 253.01 190.82 251.63 191.38&#10;  A 0.50 0.50 0.0 0 0 251.49 192.23&#10;  C 253.27 193.78 253.57 196.04 254.64 198.02&#10;  C 256.33 201.17 257.59 204.66 259.59 207.63&#10;  C 261.86 211.01 263.84 213.33 263.50 217.84&#10;  C 263.30 220.55 260.91 222.55 258.11 221.35&#10;  Q 254.22 219.67 251.86 216.17&#10;  Q 250.51 214.16 252.93 213.18&#10;  Q 254.30 212.63 253.74 211.25&#10;  Q 252.33 207.86 250.00 205.49&#10;  Q 248.39 203.86 247.59 201.68&#10;  Q 246.19 197.90 244.21 194.12&#10;  Q 243.48 192.73 241.92 192.71&#10;  C 233.88 192.62 225.79 192.80 217.73 191.98&#10;  Q 213.50 191.54 209.23 191.19&#10;  Q 204.83 190.82 201.14 189.78&#10;  Q 196.43 188.45 191.90 187.96&#10;  Q 187.83 187.53 184.32 186.79&#10;  C 177.33 185.32 170.13 184.32 163.27 182.98&#10;  C 154.22 181.22 146.26 177.87 137.19 175.64&#10;  C 128.28 173.45 120.46 169.46 111.15 167.74&#10;  Q 107.14 167.00 103.33 165.47&#10;  Q 94.94 162.09 85.92 160.98&#10;  C 81.65 160.45 77.40 159.36 73.16 159.47&#10;  Q 72.67 159.48 72.60 159.97&#10;  C 72.09 163.74 69.68 167.84 66.40 170.37&#10;  Q 65.83 170.80 66.35 171.30&#10;  Q 71.41 176.12 76.64 179.83&#10;  C 79.47 181.83 81.77 184.33 84.73 186.14&#10;  C 89.37 188.98 92.94 192.74 97.71 195.58&#10;  Q 99.12 196.42 100.33 195.40&#10;  Q 105.79 190.75 110.98 185.91&#10;  C 113.26 183.78 116.06 182.41 118.42 180.42&#10;  Q 119.72 179.32 121.42 179.16&#10;  C 125.61 178.75 129.47 181.40 131.78 184.81&#10;  Q 139.89 196.75 151.93 212.43&#10;  Q 153.99 215.11 156.85 215.67&#10;  Q 164.75 217.20 174.61 218.48&#10;  C 179.18 219.07 183.33 220.39 187.66 221.40&#10;  C 198.22 223.86 206.95 228.51 215.30 235.07&#10;  Q 220.06 238.81 225.65 242.03&#10;  C 229.43 244.21 233.86 244.55 237.91 245.53&#10;  C 240.77 246.21 244.04 244.51 246.96 243.97&#10;  Q 258.08 241.94 267.26 234.85&#10;  Q 273.74 229.84 281.92 225.47&#10;  Q 286.16 223.21 291.91 221.74&#10;  Q 296.88 220.48 302.29 219.15&#10;  C 305.96 218.26 309.20 216.58 312.76 215.48&#10;  Q 316.68 214.28 320.63 212.76&#10;  C 325.59 210.86 330.60 209.43 335.31 206.66&#10;  Q 339.87 203.99 344.38 201.46&#10;  Q 350.00 198.32 353.85 197.07&#10;  C 361.67 194.53 371.19 193.33 379.19 195.01&#10;  C 381.04 195.40 382.64 196.30 384.27 197.26&#10;  A 1.88 1.87 -45.7 0 0 386.22 197.23&#10;  C 392.16 193.48 398.12 190.02 400.90 183.46&#10;  C 403.80 176.60 407.83 170.24 412.36 163.63&#10;  Q 413.03 162.64 412.76 161.54&#10;  A 1.20 1.19 -7.5 0 0 411.57 160.64&#10;  Q 406.12 160.75 400.63 160.14&#10;  Q 396.81 159.72 394.97 160.29&#10;  Q 377.92 165.48 368.60 167.27&#10;  C 365.29 167.90 362.88 168.54 360.15 169.15&#10;  Z"/>
<path fill="#7881c5" d="&#10;  M 246.95 97.27&#10;  L 245.24 95.77&#10;  Q 244.84 95.42 244.70 94.91&#10;  C 243.61 91.08 249.32 90.62 251.69 91.25&#10;  Q 252.26 91.41 252.76 91.10&#10;  Q 256.57 88.74 262.75 90.79&#10;  Q 263.37 90.99 263.46 91.64&#10;  L 264.21 96.69&#10;  A 1.44 1.44 0.0 0 1 264.01 97.64&#10;  Q 263.27 98.82 261.87 99.49&#10;  Q 260.69 100.05 261.78 100.77&#10;  C 264.12 102.31 264.03 104.70 263.48 107.21&#10;  Q 263.17 108.57 261.42 108.76&#10;  Q 259.77 108.94 258.34 109.02&#10;  Q 257.62 109.06 257.85 109.73&#10;  C 258.12 110.50 258.46 111.27 258.35 112.10&#10;  C 257.76 116.66 252.36 114.13 249.73 113.88&#10;  Q 247.64 113.69 247.46 111.43&#10;  C 247.30 109.39 249.45 108.58 250.68 107.33&#10;  A 0.37 0.37 0.0 0 0 250.69 106.82&#10;  L 250.46 106.56&#10;  A 1.18 1.17 -37.3 0 0 248.94 106.36&#10;  L 246.72 107.80&#10;  A 1.85 1.84 -38.1 0 1 244.38 107.52&#10;  C 241.73 104.71 240.87 98.47 246.56 98.36&#10;  Q 248.15 98.32 246.95 97.27&#10;  Z&#10;  M 253.08 92.79&#10;  Q 252.21 92.19 252.52 93.20&#10;  Q 252.84 94.25 253.94 94.37&#10;  Q 254.72 94.46 254.22 93.85&#10;  Q 253.70 93.21 253.08 92.79&#10;  Z&#10;  M 256.63 96.12&#10;  Q 256.68 95.78 256.50 95.48&#10;  Q 255.97 94.61 256.24 95.60&#10;  Q 256.71 97.27 257.00 98.92&#10;  Q 257.13 99.68 257.99 99.67&#10;  Q 258.95 99.65 258.35 98.90&#10;  L 256.88 97.06&#10;  Q 256.55 96.64 256.63 96.12&#10;  Z&#10;  M 249.19 100.59&#10;  Q 249.31 100.64 249.39 100.73&#10;  Q 249.72 101.10 249.60 100.62&#10;  Q 249.43 99.89 248.69 99.64&#10;  Q 248.23 99.48 248.46 99.91&#10;  Q 248.72 100.39 249.19 100.59&#10;  Z&#10;  M 256.3361 107.2558&#10;  A 1.39 0.79 -4.3 0 0 254.8908 106.5722&#10;  A 1.39 0.79 -4.3 0 0 253.5639 107.4642&#10;  A 1.39 0.79 -4.3 0 0 255.0092 108.1478&#10;  A 1.39 0.79 -4.3 0 0 256.3361 107.2558&#10;  Z"/>
<path fill="#f06b84" d="&#10;  M 253.08 92.79&#10;  Q 253.70 93.21 254.22 93.85&#10;  Q 254.72 94.46 253.94 94.37&#10;  Q 252.84 94.25 252.52 93.20&#10;  Q 252.21 92.19 253.08 92.79&#10;  Z"/>
<path fill="#f06b84" d="&#10;  M 256.88 97.06&#10;  L 258.35 98.90&#10;  Q 258.95 99.65 257.99 99.67&#10;  Q 257.13 99.68 257.00 98.92&#10;  Q 256.71 97.27 256.24 95.60&#10;  Q 255.97 94.61 256.50 95.48&#10;  Q 256.68 95.78 256.63 96.12&#10;  Q 256.55 96.64 256.88 97.06&#10;  Z"/>
<path fill="#f06b84" d="&#10;  M 249.19 100.59&#10;  Q 248.72 100.39 248.46 99.91&#10;  Q 248.23 99.48 248.69 99.64&#10;  Q 249.43 99.89 249.60 100.62&#10;  Q 249.72 101.10 249.39 100.73&#10;  Q 249.31 100.64 249.19 100.59&#10;  Z"/>
<path fill="#7881c5" d="&#10;  M 322.83 116.95&#10;  L 325.92 122.12&#10;  Q 323.51 122.63 321.27 122.90&#10;  Q 320.03 123.05 318.83 123.55&#10;  Q 317.60 124.05 316.42 124.42&#10;  Q 313.16 121.98 313.27 119.75&#10;  Q 313.37 117.92 312.94 116.54&#10;  L 315.56 115.78&#10;  A 0.88 0.84 40.7 0 1 315.97 115.76&#10;  L 322.83 116.95&#10;  Z"/>
</svg>